<?xml version="1.0" standalone="no"?>
<!DOCTYPE svg PUBLIC "-//W3C//DTD SVG 20010904//EN"
 "http://www.w3.org/TR/2001/REC-SVG-20010904/DTD/svg10.dtd">
<svg version="1.0" xmlns="http://www.w3.org/2000/svg"
 width="200.000000pt" height="200.000000pt" viewBox="0 0 200.000000 200.000000"
 preserveAspectRatio="xMidYMid meet">
<metadata>
Created by potrace 1.14, written by Peter Selinger 2001-2017
</metadata>
<g transform="translate(0.000000,200.000000) scale(0.100000,-0.100000)"
fill="#000000" stroke="none">
<path d="M309 1985 c-107 -29 -212 -113 -261 -209 -47 -92 -48 -104 -48 -778
1 -678 1 -681 50 -779 29 -56 104 -132 160 -163 103 -56 99 -56 805 -53 358 1
663 6 680 10 95 26 210 120 256 210 50 96 49 88 46 797 l-2 665 -37 76 c-57
115 -150 193 -273 225 -70 19 -1307 18 -1376 -1z"/>
</g>
</svg>
