<svg viewBox="0 0 154 14" fill="none" xmlns="http://www.w3.org/2000/svg">
<path d="M0.378052 0.400026H9.73805L9.91805 3.96403H9.59405C9.09005 2.75203 8.56205 1.92403 8.01005 1.48003C7.45805 1.02403 6.64805 0.796026 5.58005 0.796026H4.95005V6.35803H5.56205C6.12605 6.35803 6.60005 6.14803 6.98405 5.72803C7.36805 5.29603 7.63805 4.72003 7.79405 4.00003H8.06405V9.32803H7.75805C7.54205 8.42803 7.24805 7.78603 6.87605 7.40203C6.51605 7.01803 6.01805 6.82603 5.38205 6.82603H4.95005V12.604H5.63405C6.73805 12.604 7.67405 12.274 8.44205 11.614C9.22205 10.954 9.75605 10.108 10.0441 9.07603H10.4041L10.2601 13H0.378052V12.604H1.44005V0.796026H0.378052V0.400026Z" fill="black"/>
<path d="M11.6105 0.400026H18.0905V0.796026H16.1825V12.604H16.8305C17.8505 12.604 18.6605 12.292 19.2605 11.668C19.8725 11.044 20.4905 10.084 21.1145 8.78803H21.4925L21.1505 13H11.6105V12.604H12.6725V0.796026H11.6105V0.400026Z" fill="black"/>
<path d="M22.4051 0.400026H27.8951V0.742026H26.9051V12.658H27.8951V13H22.4051V12.658H23.3951V0.742026H22.4051V0.400026Z" fill="black"/>
<path d="M38.4156 0.400026V0.796026L33.0876 12.586H33.6996C34.7796 12.586 35.7276 12.244 36.5436 11.56C37.3716 10.864 37.9656 9.88003 38.3256 8.60803H38.6496L38.4336 13H29.2176V12.658L34.5996 0.796026H33.8616C32.7936 0.796026 31.9836 1.03003 31.4316 1.49803C30.8796 1.96603 30.2556 2.92603 29.5596 4.37803H29.2356L29.5056 0.400026H38.4156Z" fill="black"/>
<path d="M46.9753 12.658L45.6613 8.77003H42.0973L40.7113 12.658H42.0613V13H39.3073V12.658H40.1533L44.7433 0.292026H46.2193L50.7553 12.658H51.5833V13H45.6973V12.658H46.9753ZM43.9513 3.65803L42.2593 8.37403H45.5173L43.9513 3.65803Z" fill="black"/>
<path d="M56.8533 9.74203L59.9853 0.742026H58.5813V0.400026H61.3353V0.742026H60.4893L56.1513 13.18H54.6393L50.0493 0.742026H49.2213V0.400026H55.1073V0.742026H53.8293L56.8533 9.74203Z" fill="black"/>
<path d="M61.8136 0.400026H71.1736L71.3536 3.96403H71.0296C70.5256 2.75203 69.9976 1.92403 69.4456 1.48003C68.8936 1.02403 68.0836 0.796026 67.0156 0.796026H66.3856V6.35803H66.9976C67.5616 6.35803 68.0356 6.14803 68.4196 5.72803C68.8036 5.29603 69.0736 4.72003 69.2296 4.00003H69.4996V9.32803H69.1936C68.9776 8.42803 68.6836 7.78603 68.3116 7.40203C67.9516 7.01803 67.4536 6.82603 66.8176 6.82603H66.3856V12.604H67.0696C68.1736 12.604 69.1096 12.274 69.8776 11.614C70.6576 10.954 71.1916 10.108 71.4796 9.07603H71.8396L71.6956 13H61.8136V12.604H62.8756V0.796026H61.8136V0.400026Z" fill="black"/>
<path d="M83.5711 0.400026L83.7511 4.91803H83.4091C82.8811 3.32203 82.4131 2.23603 82.0051 1.66003C81.5971 1.07203 81.0091 0.778027 80.2411 0.778027H80.0251V12.622H81.5551V13H74.9851V12.622H76.5151V0.778027H76.2811C75.5131 0.778027 74.9191 1.08403 74.4991 1.69603C74.0791 2.29603 73.6171 3.37003 73.1131 4.91803H72.7711L72.9511 0.400026H83.5711Z" fill="black"/>
<path d="M90.2878 12.658L88.9738 8.77003H85.4098L84.0238 12.658H85.3738V13H82.6198V12.658H83.4658L88.0558 0.292026H89.5318L94.0678 12.658H94.8958V13H89.0098V12.658H90.2878ZM87.2638 3.65803L85.5718 8.37403H88.8298L87.2638 3.65803Z" fill="black"/>
<path d="M98.6222 0.400026H107.982L108.162 4.14403H107.838C107.394 2.84803 106.878 1.96603 106.29 1.49803C105.714 1.03003 104.85 0.796026 103.698 0.796026H103.194V6.64603H104.004C104.58 6.64603 105.06 6.43603 105.444 6.01603C105.828 5.59603 106.092 5.02003 106.236 4.28803H106.506V9.61603H106.2C106.008 8.71603 105.738 8.07403 105.39 7.69003C105.054 7.30603 104.592 7.11403 104.004 7.11403H103.194V12.604H105.426V13H98.6222V12.604H99.6842V0.796026H98.6222V0.400026Z" fill="black"/>
<path d="M109.347 0.400026H114.837V0.742026H113.847V12.658H114.837V13H109.347V12.658H110.337V0.742026H109.347V0.400026Z" fill="black"/>
<path d="M115.673 0.400026H122.153V0.796026H120.245V12.604H120.893C121.913 12.604 122.723 12.292 123.323 11.668C123.935 11.044 124.553 10.084 125.177 8.78803H125.555L125.213 13H115.673V12.604H116.735V0.796026H115.673V0.400026Z" fill="black"/>
<path d="M126.468 0.400026H131.958V0.742026H130.968V12.658H131.958V13H126.468V12.658H127.458V0.742026H126.468V0.400026Z" fill="black"/>
<path d="M132.686 0.400026H137.978C139.79 0.400026 141.14 0.664026 142.028 1.19203C142.916 1.70803 143.36 2.63803 143.36 3.98203C143.36 5.47003 142.82 6.49603 141.74 7.06003C140.732 7.57603 139.322 7.83403 137.51 7.83403H137.366V12.658H139.616V13H132.686V12.658H133.856V0.742026H132.686V0.400026ZM137.366 0.742026V7.49203H137.744C138.464 7.49203 138.962 7.24603 139.238 6.75403C139.514 6.26203 139.652 5.46403 139.652 4.36003V3.49603C139.652 2.47603 139.52 1.76203 139.256 1.35403C139.004 0.946026 138.536 0.742026 137.852 0.742026H137.366Z" fill="black"/>
<path d="M149.375 12.802C149.975 12.802 150.503 12.64 150.959 12.316C151.427 11.992 151.661 11.506 151.661 10.858C151.661 10.198 151.409 9.69403 150.905 9.34603C150.413 8.99803 149.705 8.69803 148.781 8.44603C147.869 8.18203 147.203 7.95403 146.783 7.76203C146.375 7.57003 145.985 7.31803 145.613 7.00603C144.869 6.38203 144.497 5.41603 144.497 4.10803C144.497 3.04003 144.875 2.12203 145.631 1.35403C146.399 0.586026 147.443 0.202026 148.763 0.202026C149.399 0.202026 150.059 0.298026 150.743 0.490026C151.439 0.670026 151.871 0.760026 152.039 0.760026C152.207 0.760026 152.357 0.640026 152.489 0.400026H152.687L152.813 4.03603H152.525C151.949 2.99203 151.343 2.15803 150.707 1.53403C150.083 0.898026 149.399 0.580026 148.655 0.580026C147.923 0.580026 147.353 0.754026 146.945 1.10203C146.537 1.43803 146.333 1.89403 146.333 2.47003C146.333 3.03403 146.573 3.47203 147.053 3.78403C147.545 4.08403 148.145 4.33003 148.853 4.52203C149.561 4.71403 150.023 4.84603 150.239 4.91803C150.467 4.99003 150.743 5.09203 151.067 5.22403C151.403 5.34403 151.673 5.47603 151.877 5.62003C152.093 5.75203 152.315 5.92603 152.543 6.14203C152.783 6.34603 152.969 6.57403 153.101 6.82603C153.425 7.40203 153.587 8.08603 153.587 8.87803C153.587 10.174 153.179 11.218 152.363 12.01C151.559 12.79 150.497 13.18 149.177 13.18C148.493 13.18 147.707 13.09 146.819 12.91C145.943 12.73 145.457 12.64 145.361 12.64C145.193 12.64 145.031 12.82 144.875 13.18H144.623L144.443 8.89603H144.749C145.277 9.94003 145.949 10.852 146.765 11.632C147.593 12.412 148.463 12.802 149.375 12.802Z" fill="black"/>
</svg>
